<mxfile host="Electron" modified="2024-05-15T15:10:44.114Z" agent="Mozilla/5.0 (Windows NT 10.0; Win64; x64) AppleWebKit/537.36 (KHTML, like Gecko) draw.io/24.2.5 Chrome/120.0.6099.109 Electron/28.1.0 Safari/537.36" etag="U9umE2VD9kPDgG3sHTCd" version="24.2.5" type="device">
  <diagram name="Page-1" id="ad52d381-51e7-2e0d-a935-2d0ddd2fd229">
    <mxGraphModel dx="1050" dy="629" grid="1" gridSize="10" guides="1" tooltips="1" connect="1" arrows="1" fold="1" page="1" pageScale="1" pageWidth="1100" pageHeight="850" background="none" math="0" shadow="0">
      <root>
        <mxCell id="0" />
        <mxCell id="1" parent="0" />
        <mxCell id="2c924340bb9dbf6c-1" value="BGV123 (string)" style="whiteSpace=wrap;html=1;rounded=1;shadow=1;comic=0;labelBackgroundColor=none;strokeWidth=2;fontFamily=Verdana;fontSize=12;align=center;arcSize=50;fillColor=#ffff88;strokeColor=#36393d;" parent="1" vertex="1">
          <mxGeometry x="40" y="20" width="110" height="40" as="geometry" />
        </mxCell>
        <mxCell id="2c924340bb9dbf6c-2" value="&lt;font style=&quot;font-size: 14px;&quot;&gt;my:Identifier&lt;/font&gt;" style="ellipse;whiteSpace=wrap;html=1;rounded=1;shadow=1;comic=0;labelBackgroundColor=none;strokeWidth=2;fontFamily=Verdana;fontSize=12;align=center;fillColor=#b0e3e6;strokeColor=#0e8088;" parent="1" vertex="1">
          <mxGeometry x="120" y="120" width="120" height="80" as="geometry" />
        </mxCell>
        <mxCell id="qhhZF5nLOxmZ0tWzn2sf-53" style="edgeStyle=orthogonalEdgeStyle;rounded=0;orthogonalLoop=1;jettySize=auto;html=1;exitX=0.5;exitY=0;exitDx=0;exitDy=0;entryX=0;entryY=0.75;entryDx=0;entryDy=0;" edge="1" parent="1" source="2c924340bb9dbf6c-3" target="qhhZF5nLOxmZ0tWzn2sf-36">
          <mxGeometry relative="1" as="geometry" />
        </mxCell>
        <mxCell id="qhhZF5nLOxmZ0tWzn2sf-54" style="edgeStyle=orthogonalEdgeStyle;rounded=0;orthogonalLoop=1;jettySize=auto;html=1;exitX=1;exitY=0.5;exitDx=0;exitDy=0;entryX=0;entryY=0.5;entryDx=0;entryDy=0;" edge="1" parent="1" source="2c924340bb9dbf6c-3" target="qhhZF5nLOxmZ0tWzn2sf-33">
          <mxGeometry relative="1" as="geometry" />
        </mxCell>
        <mxCell id="2c924340bb9dbf6c-3" value="&lt;span&gt;&lt;font style=&quot;font-size: 14px;&quot;&gt;my:start&lt;/font&gt;&lt;/span&gt;" style="ellipse;whiteSpace=wrap;html=1;rounded=1;shadow=1;comic=0;labelBackgroundColor=none;strokeWidth=2;fontFamily=Verdana;fontSize=12;align=center;fillColor=#b0e3e6;strokeColor=#0e8088;" parent="1" vertex="1">
          <mxGeometry x="560" y="135" width="120" height="50" as="geometry" />
        </mxCell>
        <mxCell id="2c924340bb9dbf6c-4" value="&lt;font style=&quot;font-size: 14px;&quot;&gt;my:Germplasm&lt;/font&gt;" style="ellipse;whiteSpace=wrap;html=1;rounded=1;shadow=1;comic=0;labelBackgroundColor=none;strokeWidth=2;fontFamily=Verdana;fontSize=12;align=center;fillColor=#b0e3e6;strokeColor=#0e8088;" parent="1" vertex="1">
          <mxGeometry x="120" y="310" width="115" height="100" as="geometry" />
        </mxCell>
        <mxCell id="qhhZF5nLOxmZ0tWzn2sf-49" style="edgeStyle=orthogonalEdgeStyle;rounded=0;orthogonalLoop=1;jettySize=auto;html=1;exitX=1;exitY=0;exitDx=0;exitDy=0;entryX=0.5;entryY=1;entryDx=0;entryDy=0;" edge="1" parent="1" source="2c924340bb9dbf6c-5" target="qhhZF5nLOxmZ0tWzn2sf-35">
          <mxGeometry relative="1" as="geometry">
            <Array as="points">
              <mxPoint x="455" y="110" />
              <mxPoint x="565" y="110" />
            </Array>
          </mxGeometry>
        </mxCell>
        <mxCell id="qhhZF5nLOxmZ0tWzn2sf-50" style="edgeStyle=orthogonalEdgeStyle;rounded=0;orthogonalLoop=1;jettySize=auto;html=1;exitX=0;exitY=0;exitDx=0;exitDy=0;" edge="1" parent="1" source="2c924340bb9dbf6c-5" target="qhhZF5nLOxmZ0tWzn2sf-39">
          <mxGeometry relative="1" as="geometry" />
        </mxCell>
        <mxCell id="qhhZF5nLOxmZ0tWzn2sf-52" style="edgeStyle=orthogonalEdgeStyle;rounded=0;orthogonalLoop=1;jettySize=auto;html=1;exitX=1;exitY=0.5;exitDx=0;exitDy=0;entryX=0;entryY=0.5;entryDx=0;entryDy=0;" edge="1" parent="1" source="2c924340bb9dbf6c-5" target="2c924340bb9dbf6c-3">
          <mxGeometry relative="1" as="geometry" />
        </mxCell>
        <mxCell id="qhhZF5nLOxmZ0tWzn2sf-55" style="edgeStyle=orthogonalEdgeStyle;rounded=0;orthogonalLoop=1;jettySize=auto;html=1;exitX=0.5;exitY=1;exitDx=0;exitDy=0;entryX=0;entryY=0.5;entryDx=0;entryDy=0;" edge="1" parent="1" source="2c924340bb9dbf6c-5" target="qhhZF5nLOxmZ0tWzn2sf-28">
          <mxGeometry relative="1" as="geometry" />
        </mxCell>
        <mxCell id="2c924340bb9dbf6c-5" value="&lt;span&gt;&lt;font style=&quot;font-size: 14px;&quot;&gt;my:timeofobservation&lt;/font&gt;&lt;/span&gt;" style="ellipse;whiteSpace=wrap;html=1;rounded=1;shadow=1;comic=0;labelBackgroundColor=none;strokeWidth=2;fontFamily=Verdana;fontSize=12;align=center;fillColor=#b0e3e6;strokeColor=#0e8088;" parent="1" vertex="1">
          <mxGeometry x="310" y="190" width="170" height="70" as="geometry" />
        </mxCell>
        <mxCell id="2c924340bb9dbf6c-28" value="has value&lt;div&gt;SIO_000300&lt;/div&gt;" style="edgeStyle=none;rounded=1;html=1;labelBackgroundColor=none;startArrow=none;startFill=0;startSize=5;endArrow=classicThin;endFill=1;endSize=5;jettySize=auto;orthogonalLoop=1;strokeColor=#000000;strokeWidth=1;fontFamily=Verdana;fontSize=12" parent="1" source="2c924340bb9dbf6c-2" target="2c924340bb9dbf6c-1" edge="1">
          <mxGeometry x="-0.3181" y="-38" relative="1" as="geometry">
            <mxPoint as="offset" />
          </mxGeometry>
        </mxCell>
        <mxCell id="2c924340bb9dbf6c-33" value="Measured at&lt;div&gt;SIO_000793&lt;/div&gt;" style="edgeStyle=none;rounded=1;html=1;labelBackgroundColor=none;startArrow=none;startFill=0;startSize=5;endArrow=classicThin;endFill=1;endSize=5;jettySize=auto;orthogonalLoop=1;strokeColor=#000000;strokeWidth=1;fontFamily=Verdana;fontSize=12;exitX=0.5;exitY=0;exitDx=0;exitDy=0;" parent="1" source="qhhZF5nLOxmZ0tWzn2sf-15" target="2c924340bb9dbf6c-5" edge="1">
          <mxGeometry x="0.0403" y="40" relative="1" as="geometry">
            <mxPoint as="offset" />
          </mxGeometry>
        </mxCell>
        <mxCell id="2c924340bb9dbf6c-55" value="Germplasm&lt;div&gt;EFO_0007059&lt;/div&gt;" style="whiteSpace=wrap;html=1;rounded=1;shadow=1;comic=0;labelBackgroundColor=none;strokeWidth=2;fontFamily=Verdana;fontSize=12;align=center;arcSize=50;fillColor=#d5e8d4;strokeColor=#82b366;" parent="1" vertex="1">
          <mxGeometry x="10" y="215" width="110" height="50" as="geometry" />
        </mxCell>
        <mxCell id="qhhZF5nLOxmZ0tWzn2sf-23" style="edgeStyle=orthogonalEdgeStyle;rounded=0;orthogonalLoop=1;jettySize=auto;html=1;exitX=0;exitY=0;exitDx=0;exitDy=0;entryX=1;entryY=1;entryDx=0;entryDy=0;" edge="1" parent="1" source="qhhZF5nLOxmZ0tWzn2sf-15" target="2c924340bb9dbf6c-4">
          <mxGeometry relative="1" as="geometry" />
        </mxCell>
        <mxCell id="qhhZF5nLOxmZ0tWzn2sf-46" style="edgeStyle=orthogonalEdgeStyle;rounded=0;orthogonalLoop=1;jettySize=auto;html=1;exitX=0.5;exitY=1;exitDx=0;exitDy=0;" edge="1" parent="1" source="qhhZF5nLOxmZ0tWzn2sf-15" target="qhhZF5nLOxmZ0tWzn2sf-19">
          <mxGeometry relative="1" as="geometry" />
        </mxCell>
        <mxCell id="qhhZF5nLOxmZ0tWzn2sf-47" style="edgeStyle=orthogonalEdgeStyle;rounded=0;orthogonalLoop=1;jettySize=auto;html=1;exitX=0;exitY=0.5;exitDx=0;exitDy=0;entryX=1;entryY=0.5;entryDx=0;entryDy=0;" edge="1" parent="1" source="qhhZF5nLOxmZ0tWzn2sf-15" target="qhhZF5nLOxmZ0tWzn2sf-32">
          <mxGeometry relative="1" as="geometry" />
        </mxCell>
        <mxCell id="qhhZF5nLOxmZ0tWzn2sf-60" style="edgeStyle=orthogonalEdgeStyle;rounded=0;orthogonalLoop=1;jettySize=auto;html=1;exitX=1;exitY=1;exitDx=0;exitDy=0;" edge="1" parent="1" source="qhhZF5nLOxmZ0tWzn2sf-15" target="qhhZF5nLOxmZ0tWzn2sf-18">
          <mxGeometry relative="1" as="geometry" />
        </mxCell>
        <mxCell id="qhhZF5nLOxmZ0tWzn2sf-15" value="&lt;font style=&quot;font-size: 14px;&quot;&gt;this:$(bgvid)#&lt;/font&gt;&lt;div style=&quot;font-size: 14px;&quot;&gt;&lt;font style=&quot;font-size: 14px;&quot;&gt;Collection&lt;/font&gt;&lt;/div&gt;" style="ellipse;whiteSpace=wrap;html=1;rounded=1;shadow=1;comic=0;labelBackgroundColor=none;strokeWidth=2;fontFamily=Verdana;fontSize=12;align=center;fillColor=#ffe6cc;strokeColor=#d79b00;" vertex="1" parent="1">
          <mxGeometry x="270" y="450" width="120" height="80" as="geometry" />
        </mxCell>
        <mxCell id="qhhZF5nLOxmZ0tWzn2sf-18" value="&lt;span&gt;Sampling&lt;/span&gt;&lt;div&gt;&lt;span&gt;SIO_001049&lt;/span&gt;&lt;/div&gt;" style="whiteSpace=wrap;html=1;rounded=1;shadow=1;comic=0;labelBackgroundColor=none;strokeWidth=2;fontFamily=Verdana;fontSize=12;align=center;arcSize=50;fillColor=#d5e8d4;strokeColor=#82b366;" vertex="1" parent="1">
          <mxGeometry x="360" y="580" width="120" height="40" as="geometry" />
        </mxCell>
        <mxCell id="qhhZF5nLOxmZ0tWzn2sf-19" value="Sampling&lt;div&gt;SIO_001049&lt;/div&gt;" style="whiteSpace=wrap;html=1;rounded=1;shadow=1;comic=0;labelBackgroundColor=none;strokeWidth=2;fontFamily=Verdana;fontSize=12;align=center;arcSize=50;fillColor=#d5e8d4;strokeColor=#82b366;" vertex="1" parent="1">
          <mxGeometry x="210" y="570" width="120" height="40" as="geometry" />
        </mxCell>
        <mxCell id="qhhZF5nLOxmZ0tWzn2sf-56" style="edgeStyle=orthogonalEdgeStyle;rounded=0;orthogonalLoop=1;jettySize=auto;html=1;exitX=1;exitY=0;exitDx=0;exitDy=0;entryX=0;entryY=0.75;entryDx=0;entryDy=0;" edge="1" parent="1" source="qhhZF5nLOxmZ0tWzn2sf-28" target="qhhZF5nLOxmZ0tWzn2sf-38">
          <mxGeometry relative="1" as="geometry" />
        </mxCell>
        <mxCell id="qhhZF5nLOxmZ0tWzn2sf-58" style="edgeStyle=orthogonalEdgeStyle;rounded=0;orthogonalLoop=1;jettySize=auto;html=1;exitX=1;exitY=0.5;exitDx=0;exitDy=0;" edge="1" parent="1" source="qhhZF5nLOxmZ0tWzn2sf-28" target="qhhZF5nLOxmZ0tWzn2sf-37">
          <mxGeometry relative="1" as="geometry" />
        </mxCell>
        <mxCell id="qhhZF5nLOxmZ0tWzn2sf-28" value="&lt;span&gt;&lt;font style=&quot;font-size: 14px;&quot;&gt;my:end&lt;/font&gt;&lt;/span&gt;&lt;span style=&quot;color: rgba(0, 0, 0, 0); font-family: monospace; font-size: 0px; text-align: start; text-wrap: nowrap;&quot;&gt;%3CmxGraphModel%3E%3Croot%3E%3CmxCell%20id%3D%220%22%2F%3E%3CmxCell%20id%3D%221%22%20parent%3D%220%22%2F%3E%3CmxCell%20id%3D%222%22%20value%3D%22%26lt%3Bspan%26gt%3B%26lt%3Bfont%20style%3D%26quot%3Bfont-size%3A%2014px%3B%26quot%3B%26gt%3Bmy%3Astart%26lt%3B%2Ffont%26gt%3B%26lt%3B%2Fspan%26gt%3B%22%20style%3D%22ellipse%3BwhiteSpace%3Dwrap%3Bhtml%3D1%3Brounded%3D1%3Bshadow%3D1%3Bcomic%3D0%3BlabelBackgroundColor%3Dnone%3BstrokeWidth%3D2%3BfontFamily%3DVerdana%3BfontSize%3D12%3Balign%3Dcenter%3BfillColor%3D%23b0e3e6%3BstrokeColor%3D%230e8088%3B%22%20vertex%3D%221%22%20parent%3D%221%22%3E%3CmxGeometry%20x%3D%22670%22%20y%3D%22120%22%20width%3D%22120%22%20height%3D%2280%22%20as%3D%22geometry%22%2F%3E%3C%2FmxCell%3E%3C%2Froot%3E%3C%2FmxGraphModel%3E&lt;/span&gt;&lt;span style=&quot;color: rgba(0, 0, 0, 0); font-family: monospace; font-size: 0px; text-align: start; text-wrap: nowrap;&quot;&gt;%3CmxGraphModel%3E%3Croot%3E%3CmxCell%20id%3D%220%22%2F%3E%3CmxCell%20id%3D%221%22%20parent%3D%220%22%2F%3E%3CmxCell%20id%3D%222%22%20value%3D%22%26lt%3Bspan%26gt%3B%26lt%3Bfont%20style%3D%26quot%3Bfont-size%3A%2014px%3B%26quot%3B%26gt%3Bmy%3Astart%26lt%3B%2Ffont%26gt%3B%26lt%3B%2Fspan%26gt%3B%22%20style%3D%22ellipse%3BwhiteSpace%3Dwrap%3Bhtml%3D1%3Brounded%3D1%3Bshadow%3D1%3Bcomic%3D0%3BlabelBackgroundColor%3Dnone%3BstrokeWidth%3D2%3BfontFamily%3DVerdana%3BfontSize%3D12%3Balign%3Dcenter%3BfillColor%3D%23b0e3e6%3BstrokeColor%3D%230e8088%3B%22%20vertex%3D%221%22%20parent%3D%221%22%3E%3CmxGeometry%20x%3D%22670%22%20y%3D%22120%22%20width%3D%22120%22%20height%3D%2280%22%20as%3D%22geometry%22%2F%3E%3C%2FmxCell%3E%3C%2Froot%3E%3C%2FmxGraphModel%3E&lt;/span&gt;" style="ellipse;whiteSpace=wrap;html=1;rounded=1;shadow=1;comic=0;labelBackgroundColor=none;strokeWidth=2;fontFamily=Verdana;fontSize=12;align=center;fillColor=#b0e3e6;strokeColor=#0e8088;" vertex="1" parent="1">
          <mxGeometry x="430" y="290" width="120" height="50" as="geometry" />
        </mxCell>
        <mxCell id="qhhZF5nLOxmZ0tWzn2sf-59" style="edgeStyle=orthogonalEdgeStyle;rounded=0;orthogonalLoop=1;jettySize=auto;html=1;exitX=0;exitY=0.5;exitDx=0;exitDy=0;entryX=1;entryY=0;entryDx=0;entryDy=0;" edge="1" parent="1" source="qhhZF5nLOxmZ0tWzn2sf-29" target="qhhZF5nLOxmZ0tWzn2sf-15">
          <mxGeometry relative="1" as="geometry" />
        </mxCell>
        <mxCell id="qhhZF5nLOxmZ0tWzn2sf-88" style="edgeStyle=orthogonalEdgeStyle;rounded=0;orthogonalLoop=1;jettySize=auto;html=1;exitX=0.5;exitY=0;exitDx=0;exitDy=0;entryX=0.5;entryY=1;entryDx=0;entryDy=0;" edge="1" parent="1" source="qhhZF5nLOxmZ0tWzn2sf-29" target="qhhZF5nLOxmZ0tWzn2sf-40">
          <mxGeometry relative="1" as="geometry" />
        </mxCell>
        <mxCell id="qhhZF5nLOxmZ0tWzn2sf-98" style="edgeStyle=orthogonalEdgeStyle;rounded=0;orthogonalLoop=1;jettySize=auto;html=1;exitX=1;exitY=0;exitDx=0;exitDy=0;entryX=0;entryY=0.5;entryDx=0;entryDy=0;" edge="1" parent="1" source="qhhZF5nLOxmZ0tWzn2sf-29" target="qhhZF5nLOxmZ0tWzn2sf-97">
          <mxGeometry relative="1" as="geometry" />
        </mxCell>
        <mxCell id="qhhZF5nLOxmZ0tWzn2sf-29" value="&lt;span&gt;&lt;font style=&quot;font-size: 14px;&quot;&gt;my:GeoLocation&lt;/font&gt;&lt;/span&gt;" style="ellipse;whiteSpace=wrap;html=1;rounded=1;shadow=1;comic=0;labelBackgroundColor=none;strokeWidth=2;fontFamily=Verdana;fontSize=12;align=center;fillColor=#b0e3e6;strokeColor=#0e8088;" vertex="1" parent="1">
          <mxGeometry x="560" y="450" width="120" height="80" as="geometry" />
        </mxCell>
        <mxCell id="qhhZF5nLOxmZ0tWzn2sf-95" style="edgeStyle=orthogonalEdgeStyle;rounded=0;orthogonalLoop=1;jettySize=auto;html=1;exitX=0.5;exitY=0;exitDx=0;exitDy=0;entryX=0;entryY=0.5;entryDx=0;entryDy=0;" edge="1" parent="1" source="qhhZF5nLOxmZ0tWzn2sf-30" target="qhhZF5nLOxmZ0tWzn2sf-44">
          <mxGeometry relative="1" as="geometry" />
        </mxCell>
        <mxCell id="qhhZF5nLOxmZ0tWzn2sf-30" value="&lt;span&gt;&lt;font style=&quot;font-size: 14px;&quot;&gt;my:Soil_type&lt;/font&gt;&lt;/span&gt;" style="ellipse;whiteSpace=wrap;html=1;rounded=1;shadow=1;comic=0;labelBackgroundColor=none;strokeWidth=2;fontFamily=Verdana;fontSize=12;align=center;fillColor=#b0e3e6;strokeColor=#0e8088;" vertex="1" parent="1">
          <mxGeometry x="890" y="460" width="120" height="80" as="geometry" />
        </mxCell>
        <mxCell id="qhhZF5nLOxmZ0tWzn2sf-32" value="&lt;span&gt;comment&amp;nbsp;&lt;/span&gt;&lt;div&gt;&lt;span&gt;(string)&lt;/span&gt;&lt;/div&gt;" style="whiteSpace=wrap;html=1;rounded=1;shadow=1;comic=0;labelBackgroundColor=none;strokeWidth=2;fontFamily=Verdana;fontSize=12;align=center;arcSize=50;fillColor=#ffff88;strokeColor=#36393d;" vertex="1" parent="1">
          <mxGeometry x="60" y="500" width="110" height="40" as="geometry" />
        </mxCell>
        <mxCell id="qhhZF5nLOxmZ0tWzn2sf-33" value="collection_start (date)" style="whiteSpace=wrap;html=1;rounded=1;shadow=1;comic=0;labelBackgroundColor=none;strokeWidth=2;fontFamily=Verdana;fontSize=12;align=center;arcSize=50;fillColor=#ffff88;strokeColor=#36393d;" vertex="1" parent="1">
          <mxGeometry x="720" y="110" width="120" height="40" as="geometry" />
        </mxCell>
        <mxCell id="qhhZF5nLOxmZ0tWzn2sf-34" value="Time-measurement&lt;div&gt;SIO_000391&lt;span style=&quot;color: rgba(0, 0, 0, 0); font-family: monospace; font-size: 0px; text-align: start; text-wrap: nowrap; background-color: initial;&quot;&gt;%3CmxGraphModel%3E%3Croot%3E%3CmxCell%20id%3D%220%22%2F%3E%3CmxCell%20id%3D%221%22%20parent%3D%220%22%2F%3E%3CmxCell%20id%3D%222%22%20value%3D%22Germplasm%26lt%3Bdiv%26gt%3BEFO_0007059%26lt%3B%2Fdiv%26gt%3B%22%20style%3D%22whiteSpace%3Dwrap%3Bhtml%3D1%3Brounded%3D1%3Bshadow%3D1%3Bcomic%3D0%3BlabelBackgroundColor%3Dnone%3BstrokeWidth%3D2%3BfontFamily%3DVerdana%3BfontSize%3D12%3Balign%3Dcenter%3BarcSize%3D50%3BfillColor%3D%23d5e8d4%3BstrokeColor%3D%2382b366%3B%22%20vertex%3D%221%22%20parent%3D%221%22%3E%3CmxGeometry%20x%3D%2220%22%20y%3D%22250%22%20width%3D%22110%22%20height%3D%2250%22%20as%3D%22geometry%22%2F%3E%3C%2FmxCell%3E%3C%2Froot%3E%3C%2FmxGraphModel%3E&lt;/span&gt;&lt;/div&gt;" style="whiteSpace=wrap;html=1;rounded=1;shadow=1;comic=0;labelBackgroundColor=none;strokeWidth=2;fontFamily=Verdana;fontSize=12;align=center;arcSize=50;fillColor=#d5e8d4;strokeColor=#82b366;" vertex="1" parent="1">
          <mxGeometry x="360" y="10" width="110" height="50" as="geometry" />
        </mxCell>
        <mxCell id="qhhZF5nLOxmZ0tWzn2sf-35" value="Time-interval&lt;div&gt;SIO_000417&lt;/div&gt;" style="whiteSpace=wrap;html=1;rounded=1;shadow=1;comic=0;labelBackgroundColor=none;strokeWidth=2;fontFamily=Verdana;fontSize=12;align=center;arcSize=50;fillColor=#d5e8d4;strokeColor=#82b366;" vertex="1" parent="1">
          <mxGeometry x="510" y="15" width="110" height="50" as="geometry" />
        </mxCell>
        <mxCell id="qhhZF5nLOxmZ0tWzn2sf-36" value="Start time&lt;div&gt;SIO_000669&lt;span style=&quot;color: rgba(0, 0, 0, 0); font-family: monospace; font-size: 0px; text-align: start; text-wrap: nowrap; background-color: initial;&quot;&gt;%3CmxGraphModel%3E%3Croot%3E%3CmxCell%20id%3D%220%22%2F%3E%3CmxCell%20id%3D%221%22%20parent%3D%220%22%2F%3E%3CmxCell%20id%3D%222%22%20value%3D%22Time-interval%26lt%3Bdiv%26gt%3BSIO_000417%26lt%3B%2Fdiv%26gt%3B%22%20style%3D%22whiteSpace%3Dwrap%3Bhtml%3D1%3Brounded%3D1%3Bshadow%3D1%3Bcomic%3D0%3BlabelBackgroundColor%3Dnone%3BstrokeWidth%3D2%3BfontFamily%3DVerdana%3BfontSize%3D12%3Balign%3Dcenter%3BarcSize%3D50%3BfillColor%3D%23d5e8d4%3BstrokeColor%3D%2382b366%3B%22%20vertex%3D%221%22%20parent%3D%221%22%3E%3CmxGeometry%20x%3D%22450%22%20y%3D%2270%22%20width%3D%22110%22%20height%3D%2250%22%20as%3D%22geometry%22%2F%3E%3C%2FmxCell%3E%3C%2Froot%3E%3C%2FmxGraphModel%3E&lt;/span&gt;&lt;/div&gt;" style="whiteSpace=wrap;html=1;rounded=1;shadow=1;comic=0;labelBackgroundColor=none;strokeWidth=2;fontFamily=Verdana;fontSize=12;align=center;arcSize=50;fillColor=#d5e8d4;strokeColor=#82b366;" vertex="1" parent="1">
          <mxGeometry x="660" y="45" width="110" height="50" as="geometry" />
        </mxCell>
        <mxCell id="qhhZF5nLOxmZ0tWzn2sf-37" value="End time&lt;div&gt;SIO_000670&lt;/div&gt;" style="whiteSpace=wrap;html=1;rounded=1;shadow=1;comic=0;labelBackgroundColor=none;strokeWidth=2;fontFamily=Verdana;fontSize=12;align=center;arcSize=50;fillColor=#d5e8d4;strokeColor=#82b366;" vertex="1" parent="1">
          <mxGeometry x="590" y="280" width="110" height="50" as="geometry" />
        </mxCell>
        <mxCell id="qhhZF5nLOxmZ0tWzn2sf-38" value="collection_end (date)" style="whiteSpace=wrap;html=1;rounded=1;shadow=1;comic=0;labelBackgroundColor=none;strokeWidth=2;fontFamily=Verdana;fontSize=12;align=center;arcSize=50;fillColor=#ffff88;strokeColor=#36393d;" vertex="1" parent="1">
          <mxGeometry x="580" y="200" width="110" height="45" as="geometry" />
        </mxCell>
        <mxCell id="qhhZF5nLOxmZ0tWzn2sf-39" value="collection_date&lt;div&gt;(date)&lt;/div&gt;" style="whiteSpace=wrap;html=1;rounded=1;shadow=1;comic=0;labelBackgroundColor=none;strokeWidth=2;fontFamily=Verdana;fontSize=12;align=center;arcSize=50;fillColor=#ffff88;strokeColor=#36393d;" vertex="1" parent="1">
          <mxGeometry x="250" y="75" width="110" height="35" as="geometry" />
        </mxCell>
        <mxCell id="qhhZF5nLOxmZ0tWzn2sf-40" value="geo:Point" style="whiteSpace=wrap;html=1;rounded=1;shadow=1;comic=0;labelBackgroundColor=none;strokeWidth=2;fontFamily=Verdana;fontSize=12;align=center;arcSize=50;fillColor=#d5e8d4;strokeColor=#82b366;" vertex="1" parent="1">
          <mxGeometry x="600" y="370" width="100" height="40" as="geometry" />
        </mxCell>
        <mxCell id="qhhZF5nLOxmZ0tWzn2sf-41" value="latitude (float)" style="whiteSpace=wrap;html=1;rounded=1;shadow=1;comic=0;labelBackgroundColor=none;strokeWidth=2;fontFamily=Verdana;fontSize=12;align=center;arcSize=50;fillColor=#ffff88;strokeColor=#36393d;" vertex="1" parent="1">
          <mxGeometry x="465" y="540" width="100" height="30" as="geometry" />
        </mxCell>
        <mxCell id="qhhZF5nLOxmZ0tWzn2sf-42" value="longitude (float)" style="whiteSpace=wrap;html=1;rounded=1;shadow=1;comic=0;labelBackgroundColor=none;strokeWidth=2;fontFamily=Verdana;fontSize=12;align=center;arcSize=50;fillColor=#ffff88;strokeColor=#36393d;" vertex="1" parent="1">
          <mxGeometry x="565" y="575" width="110" height="30" as="geometry" />
        </mxCell>
        <mxCell id="qhhZF5nLOxmZ0tWzn2sf-43" value="soil_label" style="whiteSpace=wrap;html=1;rounded=1;shadow=1;comic=0;labelBackgroundColor=none;strokeWidth=2;fontFamily=Verdana;fontSize=12;align=center;arcSize=50;fillColor=#ffff88;strokeColor=#36393d;" vertex="1" parent="1">
          <mxGeometry x="820" y="590" width="110" height="30" as="geometry" />
        </mxCell>
        <mxCell id="qhhZF5nLOxmZ0tWzn2sf-44" value="Soil type" style="whiteSpace=wrap;html=1;rounded=1;shadow=1;comic=0;labelBackgroundColor=none;strokeWidth=2;fontFamily=Verdana;fontSize=12;align=center;arcSize=50;fillColor=#d5e8d4;strokeColor=#82b366;" vertex="1" parent="1">
          <mxGeometry x="970" y="390" width="110" height="50" as="geometry" />
        </mxCell>
        <mxCell id="qhhZF5nLOxmZ0tWzn2sf-48" style="edgeStyle=orthogonalEdgeStyle;rounded=0;orthogonalLoop=1;jettySize=auto;html=1;exitX=0.5;exitY=0;exitDx=0;exitDy=0;entryX=0.591;entryY=1;entryDx=0;entryDy=0;entryPerimeter=0;" edge="1" parent="1" source="2c924340bb9dbf6c-5" target="qhhZF5nLOxmZ0tWzn2sf-34">
          <mxGeometry relative="1" as="geometry" />
        </mxCell>
        <mxCell id="qhhZF5nLOxmZ0tWzn2sf-63" style="edgeStyle=orthogonalEdgeStyle;rounded=0;orthogonalLoop=1;jettySize=auto;html=1;exitX=1;exitY=1;exitDx=0;exitDy=0;entryX=0.664;entryY=0.007;entryDx=0;entryDy=0;entryPerimeter=0;" edge="1" parent="1" source="qhhZF5nLOxmZ0tWzn2sf-29" target="qhhZF5nLOxmZ0tWzn2sf-42">
          <mxGeometry relative="1" as="geometry" />
        </mxCell>
        <mxCell id="qhhZF5nLOxmZ0tWzn2sf-65" style="edgeStyle=orthogonalEdgeStyle;rounded=0;orthogonalLoop=1;jettySize=auto;html=1;exitX=0;exitY=1;exitDx=0;exitDy=0;entryX=0.898;entryY=0.107;entryDx=0;entryDy=0;entryPerimeter=0;" edge="1" parent="1" source="qhhZF5nLOxmZ0tWzn2sf-29" target="qhhZF5nLOxmZ0tWzn2sf-41">
          <mxGeometry relative="1" as="geometry" />
        </mxCell>
        <mxCell id="qhhZF5nLOxmZ0tWzn2sf-66" style="edgeStyle=orthogonalEdgeStyle;rounded=0;orthogonalLoop=1;jettySize=auto;html=1;exitX=1;exitY=0.5;exitDx=0;exitDy=0;entryX=0.04;entryY=0.37;entryDx=0;entryDy=0;entryPerimeter=0;" edge="1" parent="1" source="qhhZF5nLOxmZ0tWzn2sf-29" target="qhhZF5nLOxmZ0tWzn2sf-30">
          <mxGeometry relative="1" as="geometry" />
        </mxCell>
        <mxCell id="qhhZF5nLOxmZ0tWzn2sf-67" style="edgeStyle=orthogonalEdgeStyle;rounded=0;orthogonalLoop=1;jettySize=auto;html=1;exitX=0.5;exitY=1;exitDx=0;exitDy=0;entryX=0.68;entryY=0.04;entryDx=0;entryDy=0;entryPerimeter=0;" edge="1" parent="1" source="qhhZF5nLOxmZ0tWzn2sf-30" target="qhhZF5nLOxmZ0tWzn2sf-43">
          <mxGeometry relative="1" as="geometry" />
        </mxCell>
        <mxCell id="qhhZF5nLOxmZ0tWzn2sf-71" style="edgeStyle=orthogonalEdgeStyle;rounded=0;orthogonalLoop=1;jettySize=auto;html=1;exitX=0;exitY=0;exitDx=0;exitDy=0;entryX=0.847;entryY=1;entryDx=0;entryDy=0;entryPerimeter=0;" edge="1" parent="1" source="2c924340bb9dbf6c-4" target="2c924340bb9dbf6c-55">
          <mxGeometry relative="1" as="geometry" />
        </mxCell>
        <mxCell id="qhhZF5nLOxmZ0tWzn2sf-75" style="edgeStyle=orthogonalEdgeStyle;rounded=0;orthogonalLoop=1;jettySize=auto;html=1;exitX=0.5;exitY=0;exitDx=0;exitDy=0;entryX=0.603;entryY=1.03;entryDx=0;entryDy=0;entryPerimeter=0;" edge="1" parent="1" source="2c924340bb9dbf6c-4" target="2c924340bb9dbf6c-2">
          <mxGeometry relative="1" as="geometry" />
        </mxCell>
        <mxCell id="qhhZF5nLOxmZ0tWzn2sf-83" value="rdfs:label" style="text;strokeColor=none;align=center;fillColor=none;html=1;verticalAlign=middle;whiteSpace=wrap;rounded=0;" vertex="1" parent="1">
          <mxGeometry x="150" y="470" width="60" height="30" as="geometry" />
        </mxCell>
        <mxCell id="qhhZF5nLOxmZ0tWzn2sf-84" value="has end time&lt;div&gt;SIO_000681&lt;/div&gt;" style="text;strokeColor=none;align=center;fillColor=none;html=1;verticalAlign=middle;whiteSpace=wrap;rounded=0;" vertex="1" parent="1">
          <mxGeometry x="400" y="260" width="80" height="30" as="geometry" />
        </mxCell>
        <mxCell id="qhhZF5nLOxmZ0tWzn2sf-85" value="has start time&lt;div&gt;SIO_000680&lt;/div&gt;" style="text;strokeColor=none;align=center;fillColor=none;html=1;verticalAlign=middle;whiteSpace=wrap;rounded=0;" vertex="1" parent="1">
          <mxGeometry x="490" y="120" width="60" height="30" as="geometry" />
        </mxCell>
        <mxCell id="qhhZF5nLOxmZ0tWzn2sf-86" value="has output&lt;div&gt;SIO_000229&lt;/div&gt;" style="text;strokeColor=none;align=center;fillColor=none;html=1;verticalAlign=middle;whiteSpace=wrap;rounded=0;" vertex="1" parent="1">
          <mxGeometry x="230" y="420" width="60" height="35" as="geometry" />
        </mxCell>
        <mxCell id="qhhZF5nLOxmZ0tWzn2sf-87" value="is location of&lt;div&gt;SIO_000145&lt;/div&gt;" style="text;strokeColor=none;align=center;fillColor=none;html=1;verticalAlign=middle;whiteSpace=wrap;rounded=0;" vertex="1" parent="1">
          <mxGeometry x="440" y="430" width="60" height="30" as="geometry" />
        </mxCell>
        <mxCell id="qhhZF5nLOxmZ0tWzn2sf-89" value="has identifier&lt;div&gt;SIO_000671&lt;/div&gt;" style="text;strokeColor=none;align=center;fillColor=none;html=1;verticalAlign=middle;whiteSpace=wrap;rounded=0;" vertex="1" parent="1">
          <mxGeometry x="190" y="260" width="60" height="30" as="geometry" />
        </mxCell>
        <mxCell id="qhhZF5nLOxmZ0tWzn2sf-90" value="has value&lt;div&gt;SIO_000300&lt;/div&gt;" style="text;strokeColor=none;align=center;fillColor=none;html=1;verticalAlign=middle;whiteSpace=wrap;rounded=0;" vertex="1" parent="1">
          <mxGeometry x="260" y="155" width="60" height="30" as="geometry" />
        </mxCell>
        <mxCell id="qhhZF5nLOxmZ0tWzn2sf-91" value="has value&lt;div&gt;SIO_000300&lt;/div&gt;" style="text;strokeColor=none;align=center;fillColor=none;html=1;verticalAlign=middle;whiteSpace=wrap;rounded=0;" vertex="1" parent="1">
          <mxGeometry x="700" y="170" width="60" height="30" as="geometry" />
        </mxCell>
        <mxCell id="qhhZF5nLOxmZ0tWzn2sf-92" value="has value&lt;div&gt;SIO_000300&lt;/div&gt;" style="text;strokeColor=none;align=center;fillColor=none;html=1;verticalAlign=middle;whiteSpace=wrap;rounded=0;" vertex="1" parent="1">
          <mxGeometry x="490" y="235" width="60" height="30" as="geometry" />
        </mxCell>
        <mxCell id="qhhZF5nLOxmZ0tWzn2sf-93" value="http://some.ontology.term/soiltype" style="text;strokeColor=none;align=center;fillColor=none;html=1;verticalAlign=middle;whiteSpace=wrap;rounded=0;" vertex="1" parent="1">
          <mxGeometry x="760" y="455" width="60" height="30" as="geometry" />
        </mxCell>
        <mxCell id="qhhZF5nLOxmZ0tWzn2sf-96" value="has value&lt;div&gt;SIO_000300&lt;/div&gt;" style="text;strokeColor=none;align=center;fillColor=none;html=1;verticalAlign=middle;whiteSpace=wrap;rounded=0;" vertex="1" parent="1">
          <mxGeometry x="860" y="530" width="60" height="30" as="geometry" />
        </mxCell>
        <mxCell id="qhhZF5nLOxmZ0tWzn2sf-105" style="edgeStyle=orthogonalEdgeStyle;rounded=0;orthogonalLoop=1;jettySize=auto;html=1;exitX=0.5;exitY=0;exitDx=0;exitDy=0;entryX=0.5;entryY=1;entryDx=0;entryDy=0;" edge="1" parent="1" source="qhhZF5nLOxmZ0tWzn2sf-97" target="qhhZF5nLOxmZ0tWzn2sf-99">
          <mxGeometry relative="1" as="geometry" />
        </mxCell>
        <mxCell id="qhhZF5nLOxmZ0tWzn2sf-106" style="edgeStyle=orthogonalEdgeStyle;rounded=0;orthogonalLoop=1;jettySize=auto;html=1;exitX=1;exitY=0;exitDx=0;exitDy=0;entryX=0;entryY=0.5;entryDx=0;entryDy=0;" edge="1" parent="1" source="qhhZF5nLOxmZ0tWzn2sf-97" target="qhhZF5nLOxmZ0tWzn2sf-101">
          <mxGeometry relative="1" as="geometry" />
        </mxCell>
        <mxCell id="qhhZF5nLOxmZ0tWzn2sf-107" style="edgeStyle=orthogonalEdgeStyle;rounded=0;orthogonalLoop=1;jettySize=auto;html=1;exitX=1;exitY=0.5;exitDx=0;exitDy=0;entryX=0;entryY=0.5;entryDx=0;entryDy=0;" edge="1" parent="1" source="qhhZF5nLOxmZ0tWzn2sf-97" target="qhhZF5nLOxmZ0tWzn2sf-102">
          <mxGeometry relative="1" as="geometry" />
        </mxCell>
        <mxCell id="qhhZF5nLOxmZ0tWzn2sf-97" value="&lt;span&gt;&lt;font style=&quot;font-size: 14px;&quot;&gt;my:CountryName&lt;/font&gt;&lt;/span&gt;" style="ellipse;whiteSpace=wrap;html=1;rounded=1;shadow=1;comic=0;labelBackgroundColor=none;strokeWidth=2;fontFamily=Verdana;fontSize=12;align=center;fillColor=#b0e3e6;strokeColor=#0e8088;" vertex="1" parent="1">
          <mxGeometry x="770" y="267.5" width="135" height="75" as="geometry" />
        </mxCell>
        <mxCell id="qhhZF5nLOxmZ0tWzn2sf-99" value="Country&lt;div&gt;SIO_000664&lt;/div&gt;" style="whiteSpace=wrap;html=1;rounded=1;shadow=1;comic=0;labelBackgroundColor=none;strokeWidth=2;fontFamily=Verdana;fontSize=12;align=center;arcSize=50;fillColor=#d5e8d4;strokeColor=#82b366;" vertex="1" parent="1">
          <mxGeometry x="880" y="50" width="110" height="50" as="geometry" />
        </mxCell>
        <mxCell id="qhhZF5nLOxmZ0tWzn2sf-101" value="country_name&lt;div&gt;(string)&lt;/div&gt;&lt;div&gt;Spain&lt;/div&gt;" style="whiteSpace=wrap;html=1;rounded=1;shadow=1;comic=0;labelBackgroundColor=none;strokeWidth=2;fontFamily=Verdana;fontSize=12;align=center;arcSize=50;fillColor=#ffff88;strokeColor=#36393d;" vertex="1" parent="1">
          <mxGeometry x="960" y="185" width="130" height="60" as="geometry" />
        </mxCell>
        <mxCell id="qhhZF5nLOxmZ0tWzn2sf-102" value="country_name&lt;div&gt;(string)&lt;/div&gt;&lt;div&gt;ESP&lt;/div&gt;" style="whiteSpace=wrap;html=1;rounded=1;shadow=1;comic=0;labelBackgroundColor=none;strokeWidth=2;fontFamily=Verdana;fontSize=12;align=center;arcSize=50;fillColor=#ffff88;strokeColor=#36393d;" vertex="1" parent="1">
          <mxGeometry x="960" y="310" width="130" height="55" as="geometry" />
        </mxCell>
        <mxCell id="qhhZF5nLOxmZ0tWzn2sf-109" value="rdfs:label" style="text;strokeColor=none;align=center;fillColor=none;html=1;verticalAlign=middle;whiteSpace=wrap;rounded=0;" vertex="1" parent="1">
          <mxGeometry x="905" y="340" width="60" height="30" as="geometry" />
        </mxCell>
        <mxCell id="qhhZF5nLOxmZ0tWzn2sf-110" value="rdfs:label" style="text;strokeColor=none;align=center;fillColor=none;html=1;verticalAlign=middle;whiteSpace=wrap;rounded=0;" vertex="1" parent="1">
          <mxGeometry x="870" y="215" width="60" height="30" as="geometry" />
        </mxCell>
        <mxCell id="qhhZF5nLOxmZ0tWzn2sf-111" value="is locatied in&lt;div&gt;SIO_000061&lt;/div&gt;" style="text;strokeColor=none;align=center;fillColor=none;html=1;verticalAlign=middle;whiteSpace=wrap;rounded=0;" vertex="1" parent="1">
          <mxGeometry x="720" y="365" width="80" height="40" as="geometry" />
        </mxCell>
      </root>
    </mxGraphModel>
  </diagram>
</mxfile>
